<?xml version="1.0" encoding="utf-8"?>
<!-- Generator: Adobe Illustrator 26.0.0, SVG Export Plug-In . SVG Version: 6.00 Build 0)  -->
<svg version="1.1" id="레이어_1" xmlns="http://www.w3.org/2000/svg" xmlns:xlink="http://www.w3.org/1999/xlink" x="0px"
	 y="0px" viewBox="0 0 1000 500" style="enable-background:new 0 0 1000 500;" xml:space="preserve">
<style type="text/css">
	.st0{fill:#005FFF;}
</style>
<g>
	<polygon class="st0" points="505.7,167.9 463,167.9 404,167.9 361.3,167.9 361.3,218.7 408.1,218.7 408.1,331.9 459.2,331.9 
		459.2,218.7 505.7,218.7 	"/>
	<polygon class="st0" points="721.9,167.9 721.9,224.6 678.1,224.6 678.1,167.9 627.4,167.9 627.4,220.4 627.4,279.4 627.4,331.9 
		678.1,331.9 678.1,275.2 721.9,275.2 721.9,331.9 772.6,331.9 772.6,279.4 772.6,220.4 772.6,167.9 	"/>
	<path class="st0" d="M281.7,167.9c-45.3,0-82,36.7-82,82c0,45.3,36.7,82,82,82s82-36.7,82-82C363.7,204.6,327,167.9,281.7,167.9z
		 M281.7,282.9c-18.2,0-33-14.8-33-33s14.8-33,33-33c18.2,0,33,14.8,33,33S299.9,282.9,281.7,282.9z"/>
	<g>
		<path class="st0" d="M840.5,314.2l-4.5,17.7h-59l60.6-162.5h58.2l60.6,162.5h-59l-4.5-17.7H840.5z M866.7,226.9L850.3,269h32.8
			L866.7,226.9z"/>
	</g>
	<path class="st0" d="M587.7,284.8c-18.3,0-33.1-14.8-33.1-33.1c0-18.3,14.8-33.1,33.1-33.1H614v-50.7h-26.3c-45.3,0-82,36.7-82,82
		c0,45.3,36.7,82,82,82h7.8H614v-47L587.7,284.8z"/>
	<path class="st0" d="M127.5,167.9C127.5,167.9,127.5,167.9,127.5,167.9h-2.9v0.1c-44.8,1.5-82,38.6-81.1,83.7
		c0.8,44.6,37.3,80.5,82.1,80.5h7.8h56.3V321v-49.2v-42.9h-41.9h-14.4h-7.8h-3.4v42.9v0h4.1v0h17.7V285h-17.7v0
		c-4.1,0.1-8.4-0.6-12.8-2.4c-12.3-5.2-21-17-21.1-30.3c-0.2-18.5,14.7-33.6,33.2-33.6h25.2h38.9v-39.8v-11H127.5z"/>
</g>
</svg>
